<svg id="Layer_3" data-name="Layer 3" xmlns="http://www.w3.org/2000/svg" viewBox="0 0 783.37 246.2"><defs><style>.cls-1{fill:#00c853;}.cls-2{fill:#00e676;}.cls-3{fill:#1de9b6;}.cls-4{fill:#64ffda;}</style></defs><path class="cls-1" d="M79.13,164.71H44.59v-7H79.51c29.63,0,34.35-11.71,34.35-26.24,0-12.27-5.66-25.1-29.26-25.1H38.17v58.32H29.49V43.91h8.68V99.59H84.23c23,0,26.42-13.21,26.42-23.4,0-14.73-7.36-24.92-30.95-24.92H44.59V43.91H79.51c28.88,0,39.64,13,39.26,31.33,0,10.2-3.21,23.22-18.31,26.81,16.23,3.77,21.9,17.17,21.9,29.63C122.36,149.61,114.8,164.71,79.13,164.71Z" transform="translate(-29.26 -31.26)"/><path class="cls-1" d="M135,119.41V67.13h8.3V120c0,23.59,4.53,37.37,30.58,38.69v7C140.85,165.28,135,147.35,135,119.41Zm80.78,45.49-1.51-21.14c-3.77,12.08-13.4,20.57-34.16,21.71v-6.8c26.42-.94,32.28-14.91,32.28-39.07V67.13h8.3l.19,97.77Z" transform="translate(-29.26 -31.26)"/><path class="cls-1" d="M233,164.71v-7.36l71-90.22h4.71V74.3l-66.25,83.43h67.76v7Zm57-90.6H233.33v-7h62.1Z" transform="translate(-29.26 -31.26)"/><path class="cls-1" d="M317,164.71v-7.36l71-90.22h4.71V74.3l-66.25,83.43h67.76v7Zm57-90.6H317.32v-7h62.1Z" transform="translate(-29.26 -31.26)"/><path class="cls-2" d="M437.74,164.71l-40.2-120.8h8.87l39.83,120.8Zm84.94,0L484.93,54.86l-34.54,102.3-4-12.08L480.21,43.91H490l41,120.8ZM535,157.16l-4-12.27,32.47-101h8.68Z" transform="translate(-29.26 -31.26)"/><path class="cls-2" d="M570.24,115.82c0-24.53,9.06-48.13,44-49.45v7.36c-28.88,1.32-35.67,20.39-35.67,42.09,0,22.09,6.79,41.34,35.67,42.47v7.36C578.73,164.52,570.24,140.74,570.24,115.82Zm50,49.83v-7.36c28.69-1.32,35.86-20.38,35.86-42.47,0-21.7-7-40.77-35.86-42.09V66.37c34.92,1.32,44.17,24.92,44.17,49.45C664.43,140.93,655.18,164.33,620.26,165.65Z" transform="translate(-29.26 -31.26)"/><path class="cls-2" d="M686.88,112.05v52.66h-8.3l-.19-97.58h4.91l1.88,21c3.78-13.21,14.73-22.28,38.7-21.9v7.55C693.3,73.17,686.88,87.32,686.88,112.05Z" transform="translate(-29.26 -31.26)"/><path class="cls-2" d="M722.18,115.82c0-27.36,7.92-49.07,41.71-49.64v7.18c-27.37,1.51-33.22,18.3-33.22,42.46,0,24.54,5.85,41.53,33.22,42.85v7C730.1,164.9,722.18,143.57,722.18,115.82Zm85.12,48.89-1.51-22.46C802,154.9,792,164.33,769.93,165.47v-6.8c28.31-1.32,34.35-17.74,34.35-42.85,0-23.78-5.09-41.52-34.35-42.46v-7c21.14,1.13,30.58,10.38,34.35,22.09V31.26h8.12V164.71Z" transform="translate(-29.26 -31.26)"/><path class="cls-3" d="M102.39,277.47H29.26V173h73.13ZM97.2,256.61V225.28H44.92V214.81H97.2V204.43H34.45v31.24H86.72v10.47H34.45v10.47Z" transform="translate(-29.26 -31.26)"/><path class="cls-3" d="M175.34,277.47H102.21V173h73.13Zm-5.19-20.86V246.14H117.88V214.81h52.27V204.43H117.88v-21H107.4v73.13Z" transform="translate(-29.26 -31.26)"/><path class="cls-3" d="M248.29,277.47H175.16V173h73.13Zm-5.19-62.66V204.43H180.35v10.38Zm0,41.8V225.28H180.35v31.33Zm-10.47-10.47h-41.8V235.67h41.8Z" transform="translate(-29.26 -31.26)"/><path class="cls-3" d="M321.24,277.47H248.11V173h73.13Zm-5.19-20.86V246.14H263.78V214.81h52.27V204.43H253.31v52.18Z" transform="translate(-29.26 -31.26)"/><path class="cls-3" d="M394.19,277.47H321.07V173h73.12ZM389,256.61l-39.33-41.8H389V204.43H336.73v-21H326.26v73.13h10.47V215.43l38.63,41.18Z" transform="translate(-29.26 -31.26)"/><path class="cls-4" d="M409.68,256.61H399.21V246.14h10.47Z" transform="translate(-29.26 -31.26)"/><path class="cls-4" d="M502.17,256.61H439.42V183.48H449.9v20.86h52.27v10.47H449.9v31.33h52.27Z" transform="translate(-29.26 -31.26)"/><path class="cls-4" d="M605.65,214.81H542.91V204.34h62.74Zm0,20.95H542.91V225.28h62.74Zm0,20.85H542.91V246.14h62.74Z" transform="translate(-29.26 -31.26)"/><path class="cls-4" d="M646.4,256.61V204.34h62.74v10.47H656.87v31.33h52.27v10.47Z" transform="translate(-29.26 -31.26)"/><path class="cls-4" d="M812.63,256.61H802.16v-41.8h-41.8v41.8H749.89V183.48h10.47v20.86h52.27Z" transform="translate(-29.26 -31.26)"/></svg>